<svg width="63" height="20" viewBox="0 0 63 20" fill="none" xmlns="http://www.w3.org/2000/svg">
<path d="M21.9091 12H20.4304V7.63636H21.9389C22.3722 7.63636 22.7443 7.72372 23.0554 7.89844C23.3679 8.07173 23.608 8.32102 23.7756 8.64631C23.9432 8.97159 24.027 9.3608 24.027 9.81392C24.027 10.2685 23.9425 10.6591 23.7734 10.9858C23.6058 11.3125 23.3636 11.5632 23.0469 11.7379C22.7315 11.9126 22.3523 12 21.9091 12ZM21.2209 11.3161H21.8707C22.1747 11.3161 22.4283 11.2607 22.6314 11.1499C22.8345 11.0376 22.9872 10.8707 23.0895 10.6491C23.1918 10.4261 23.2429 10.1477 23.2429 9.81392C23.2429 9.48011 23.1918 9.20312 23.0895 8.98295C22.9872 8.76136 22.8359 8.59588 22.6357 8.48651C22.4368 8.37571 22.1896 8.32031 21.8942 8.32031H21.2209V11.3161ZM26.1715 12.0639C25.8519 12.0639 25.5749 11.9936 25.3406 11.853C25.1062 11.7124 24.9244 11.5156 24.7951 11.2628C24.6673 11.0099 24.6033 10.7145 24.6033 10.3764C24.6033 10.0384 24.6673 9.74219 24.7951 9.48793C24.9244 9.23366 25.1062 9.03622 25.3406 8.8956C25.5749 8.75497 25.8519 8.68466 26.1715 8.68466C26.4911 8.68466 26.7681 8.75497 27.0025 8.8956C27.2369 9.03622 27.418 9.23366 27.5458 9.48793C27.6751 9.74219 27.7397 10.0384 27.7397 10.3764C27.7397 10.7145 27.6751 11.0099 27.5458 11.2628C27.418 11.5156 27.2369 11.7124 27.0025 11.853C26.7681 11.9936 26.4911 12.0639 26.1715 12.0639ZM26.1758 11.446C26.3491 11.446 26.494 11.3984 26.6104 11.3033C26.7269 11.2067 26.8136 11.0774 26.8704 10.9155C26.9286 10.7536 26.9577 10.5732 26.9577 10.3743C26.9577 10.174 26.9286 9.9929 26.8704 9.83097C26.8136 9.66761 26.7269 9.53764 26.6104 9.44105C26.494 9.34446 26.3491 9.29616 26.1758 9.29616C25.9982 9.29616 25.8505 9.34446 25.7326 9.44105C25.6161 9.53764 25.5288 9.66761 25.4705 9.83097C25.4137 9.9929 25.3853 10.174 25.3853 10.3743C25.3853 10.5732 25.4137 10.7536 25.4705 10.9155C25.5288 11.0774 25.6161 11.2067 25.7326 11.3033C25.8505 11.3984 25.9982 11.446 26.1758 11.446ZM28.976 12L28.0513 8.72727H28.8375L29.4128 11.0284H29.4426L30.0307 8.72727H30.8084L31.3965 11.0156H31.4284L31.9952 8.72727H32.7836L31.8567 12H31.0534L30.4398 9.78835H30.3951L29.7814 12H28.976ZM34.0934 10.0824V12H33.3221V8.72727H34.0593V9.28338H34.0977C34.1729 9.10014 34.293 8.95455 34.4577 8.84659C34.6239 8.73864 34.8292 8.68466 35.0735 8.68466C35.2994 8.68466 35.4961 8.73295 35.6637 8.82955C35.8327 8.92614 35.9634 9.06605 36.0558 9.24929C36.1495 9.43253 36.1957 9.65483 36.1942 9.91619V12H35.4229V10.0355C35.4229 9.81676 35.3661 9.6456 35.2525 9.52202C35.1403 9.39844 34.9847 9.33665 34.7859 9.33665C34.6509 9.33665 34.5309 9.36648 34.4258 9.42614C34.3221 9.48437 34.2404 9.56889 34.1808 9.67969C34.1225 9.79048 34.0934 9.92472 34.0934 10.0824ZM37.7496 7.63636V12H36.9783V7.63636H37.7496ZM39.9703 12.0639C39.6507 12.0639 39.3738 11.9936 39.1394 11.853C38.905 11.7124 38.7232 11.5156 38.5939 11.2628C38.4661 11.0099 38.4022 10.7145 38.4022 10.3764C38.4022 10.0384 38.4661 9.74219 38.5939 9.48793C38.7232 9.23366 38.905 9.03622 39.1394 8.8956C39.3738 8.75497 39.6507 8.68466 39.9703 8.68466C40.29 8.68466 40.5669 8.75497 40.8013 8.8956C41.0357 9.03622 41.2168 9.23366 41.3446 9.48793C41.4739 9.74219 41.5385 10.0384 41.5385 10.3764C41.5385 10.7145 41.4739 11.0099 41.3446 11.2628C41.2168 11.5156 41.0357 11.7124 40.8013 11.853C40.5669 11.9936 40.29 12.0639 39.9703 12.0639ZM39.9746 11.446C40.1479 11.446 40.2928 11.3984 40.4093 11.3033C40.5257 11.2067 40.6124 11.0774 40.6692 10.9155C40.7275 10.7536 40.7566 10.5732 40.7566 10.3743C40.7566 10.174 40.7275 9.9929 40.6692 9.83097C40.6124 9.66761 40.5257 9.53764 40.4093 9.44105C40.2928 9.34446 40.1479 9.29616 39.9746 9.29616C39.7971 9.29616 39.6493 9.34446 39.5314 9.44105C39.415 9.53764 39.3276 9.66761 39.2694 9.83097C39.2125 9.9929 39.1841 10.174 39.1841 10.3743C39.1841 10.5732 39.2125 10.7536 39.2694 10.9155C39.3276 11.0774 39.415 11.2067 39.5314 11.3033C39.6493 11.3984 39.7971 11.446 39.9746 11.446ZM43.1349 12.0661C42.9276 12.0661 42.7408 12.0291 42.5746 11.9553C42.4098 11.88 42.2791 11.7692 42.1825 11.6229C42.0874 11.4766 42.0398 11.2962 42.0398 11.0817C42.0398 10.897 42.0739 10.7443 42.142 10.6236C42.2102 10.5028 42.3033 10.4062 42.4212 10.3338C42.5391 10.2614 42.6719 10.2067 42.8196 10.1697C42.9688 10.1314 43.1229 10.1037 43.282 10.0866C43.4737 10.0668 43.6293 10.049 43.7486 10.0334C43.8679 10.0163 43.9545 9.99077 44.0085 9.95668C44.0639 9.92116 44.0916 9.86648 44.0916 9.79261V9.77983C44.0916 9.61932 44.044 9.49503 43.9489 9.40696C43.8537 9.31889 43.7166 9.27486 43.5376 9.27486C43.3487 9.27486 43.1989 9.31605 43.0881 9.39844C42.9787 9.48082 42.9048 9.57812 42.8665 9.69034L42.1463 9.58807C42.2031 9.3892 42.2969 9.22301 42.4276 9.08949C42.5582 8.95455 42.718 8.85369 42.907 8.78693C43.0959 8.71875 43.3047 8.68466 43.5334 8.68466C43.6911 8.68466 43.848 8.70312 44.0043 8.74006C44.1605 8.77699 44.3033 8.83807 44.4325 8.9233C44.5618 9.0071 44.6655 9.12145 44.7436 9.26634C44.8232 9.41122 44.8629 9.59233 44.8629 9.80966V12H44.1214V11.5504H44.0959C44.049 11.6413 43.983 11.7266 43.8977 11.8061C43.8139 11.8842 43.7081 11.9474 43.5803 11.9957C43.4538 12.0426 43.3054 12.0661 43.1349 12.0661ZM43.3352 11.4993C43.4901 11.4993 43.6243 11.4687 43.7379 11.4077C43.8516 11.3452 43.9389 11.2628 44 11.1605C44.0625 11.0582 44.0938 10.9467 44.0938 10.826V10.4403C44.0696 10.4602 44.0284 10.4787 43.9702 10.4957C43.9134 10.5128 43.8494 10.5277 43.7784 10.5405C43.7074 10.5533 43.6371 10.5646 43.5675 10.5746C43.4979 10.5845 43.4375 10.593 43.3864 10.6001C43.2713 10.6158 43.1683 10.6413 43.0774 10.6768C42.9865 10.7124 42.9148 10.7621 42.8622 10.826C42.8097 10.8885 42.7834 10.9695 42.7834 11.0689C42.7834 11.2109 42.8352 11.3182 42.9389 11.3906C43.0426 11.4631 43.1747 11.4993 43.3352 11.4993ZM46.853 12.0575C46.5959 12.0575 46.3658 11.9915 46.1626 11.8594C45.9595 11.7273 45.799 11.5355 45.6811 11.2841C45.5632 11.0327 45.5043 10.7273 45.5043 10.3679C45.5043 10.0043 45.5639 9.69744 45.6832 9.44744C45.804 9.19602 45.9666 9.00639 46.1712 8.87855C46.3757 8.74929 46.6037 8.68466 46.8551 8.68466C47.0469 8.68466 47.2045 8.71733 47.3281 8.78267C47.4517 8.84659 47.5497 8.92401 47.6222 9.01491C47.6946 9.1044 47.7507 9.18892 47.7905 9.26847H47.8224V7.63636H48.5959V12H47.8374V11.4844H47.7905C47.7507 11.5639 47.6932 11.6484 47.6179 11.7379C47.5426 11.826 47.4432 11.9013 47.3196 11.9638C47.196 12.0263 47.0405 12.0575 46.853 12.0575ZM47.0682 11.4247C47.2315 11.4247 47.3707 11.3807 47.4858 11.2926C47.6009 11.2031 47.6882 11.0788 47.7479 10.9197C47.8075 10.7607 47.8374 10.5753 47.8374 10.3636C47.8374 10.152 47.8075 9.96804 47.7479 9.81179C47.6896 9.65554 47.603 9.53409 47.4879 9.44744C47.3743 9.3608 47.2344 9.31747 47.0682 9.31747C46.8963 9.31747 46.7528 9.36222 46.6378 9.4517C46.5227 9.54119 46.4361 9.66477 46.3778 9.82244C46.3196 9.98011 46.2905 10.1605 46.2905 10.3636C46.2905 10.5682 46.3196 10.7507 46.3778 10.9112C46.4375 11.0703 46.5249 11.196 46.6399 11.2884C46.7564 11.3793 46.8991 11.4247 47.0682 11.4247ZM50.9402 12V7.63636H52.5765C52.9118 7.63636 53.193 7.69886 53.4203 7.82386C53.649 7.94886 53.8216 8.12074 53.938 8.33949C54.0559 8.55682 54.1149 8.80398 54.1149 9.08097C54.1149 9.3608 54.0559 9.60937 53.938 9.8267C53.8201 10.044 53.6461 10.2152 53.416 10.3402C53.1859 10.4638 52.9025 10.5256 52.5659 10.5256H51.4814V9.87571H52.4593C52.6554 9.87571 52.8159 9.84162 52.9409 9.77344C53.0659 9.70526 53.1582 9.61151 53.2179 9.49219C53.2789 9.37287 53.3095 9.2358 53.3095 9.08097C53.3095 8.92614 53.2789 8.78977 53.2179 8.67188C53.1582 8.55398 53.0652 8.46236 52.9387 8.39702C52.8137 8.33026 52.6525 8.29688 52.4551 8.29688H51.7306V12H50.9402ZM56.2802 12H54.8015V7.63636H56.31C56.7433 7.63636 57.1154 7.72372 57.4265 7.89844C57.739 8.07173 57.979 8.32102 58.1467 8.64631C58.3143 8.97159 58.3981 9.3608 58.3981 9.81392C58.3981 10.2685 58.3136 10.6591 58.1445 10.9858C57.9769 11.3125 57.7347 11.5632 57.418 11.7379C57.1026 11.9126 56.7234 12 56.2802 12ZM55.592 11.3161H56.2418C56.5458 11.3161 56.7994 11.2607 57.0025 11.1499C57.2056 11.0376 57.3583 10.8707 57.4606 10.6491C57.5629 10.4261 57.614 10.1477 57.614 9.81392C57.614 9.48011 57.5629 9.20312 57.4606 8.98295C57.3583 8.76136 57.207 8.59588 57.0067 8.48651C56.8079 8.37571 56.5607 8.32031 56.2653 8.32031H55.592V11.3161ZM59.1491 12V7.63636H61.9446V8.29901H59.9396V9.48366H61.7528V10.1463H59.9396V12H59.1491Z" fill="#92A6B0"/>
<path d="M15.6598 0.731093V16.7055C15.6598 16.8994 15.5828 17.0853 15.4456 17.2224C15.3085 17.3595 15.1226 17.4366 14.9287 17.4366H3.4944C3.3005 17.4366 3.11454 17.3595 2.97744 17.2224C2.84033 17.0853 2.76331 16.8994 2.76331 16.7055V5.46126L6.78432 0H14.9287C15.1226 0 15.3085 0.0770258 15.4456 0.214132C15.5828 0.351239 15.6598 0.537195 15.6598 0.731093Z" fill="#EDEEEF"/>
<path d="M6.78471 0.00730133V4.69726C6.78471 4.89116 6.70769 5.07711 6.57058 5.21422C6.43348 5.35133 6.24752 5.42835 6.05362 5.42835H2.78198L6.78471 0.00730133Z" fill="#CFD0D1"/>
<path d="M10.7178 9.98671H0.731093C0.327321 9.98671 0 10.314 0 10.7178V14.3879C0 14.7917 0.327321 15.119 0.731093 15.119H10.7178C11.1216 15.119 11.4489 14.7917 11.4489 14.3879V10.7178C11.4489 10.314 11.1216 9.98671 10.7178 9.98671Z" fill="#FF3717"/>
<path d="M3.71393 12.8489V13.6385H3.07788V11.4708H3.95519C4.12595 11.4616 4.2967 11.489 4.45599 11.5512C4.56936 11.6026 4.66482 11.6866 4.73015 11.7925C4.79627 11.9029 4.83044 12.0294 4.82885 12.158C4.83314 12.2514 4.81705 12.3445 4.78169 12.431C4.74634 12.5175 4.69258 12.5952 4.62414 12.6588C4.47177 12.7914 4.27385 12.8595 4.07217 12.8489H3.71393ZM3.71393 12.3847H3.92595C4.11238 12.3847 4.20376 12.3116 4.20376 12.169C4.20376 12.0264 4.11969 11.9643 3.94788 11.9643H3.71393V12.3847ZM5.06645 13.6385V11.4708H5.867C6.01289 11.4598 6.15933 11.4832 6.29455 11.5391C6.42977 11.595 6.55001 11.6817 6.64561 11.7925C6.81785 12.0038 6.90978 12.2693 6.90515 12.5419C6.92058 12.8314 6.82069 13.1153 6.62733 13.3314C6.53554 13.4332 6.42243 13.5135 6.29607 13.5666C6.1697 13.6197 6.03318 13.6442 5.89624 13.6385H5.06645ZM5.7025 13.1377H5.867C5.9217 13.1368 5.97518 13.1214 6.02204 13.0932C6.0689 13.0649 6.10747 13.0248 6.13385 12.9769C6.21042 12.8451 6.24723 12.6941 6.23986 12.5419C6.24272 12.3996 6.21005 12.2589 6.14481 12.1325C6.1192 12.081 6.07948 12.0379 6.0303 12.0081C5.98111 11.9783 5.92448 11.9631 5.867 11.9643H5.7025V13.1377ZM8.46603 12.827H7.79343V13.6385H7.17565V11.4708H8.67074V11.9862H7.79343V12.3518H8.46603V12.827Z" fill="#EDEEEF"/>
</svg>
