<svg width="50" height="39" viewBox="0 0 50 39" fill="none" xmlns="http://www.w3.org/2000/svg">
<path d="M14.2388 0C13.9699 0 13.7121 0.105395 13.522 0.292999C13.3318 0.480602 13.225 0.735047 13.225 1.00036V4.04145H7.18907L1.05578 3.96142C0.921634 3.95983 0.788499 3.98453 0.664096 4.0341C0.539692 4.08366 0.426495 4.15709 0.331066 4.25014C0.235637 4.34319 0.159874 4.45401 0.108169 4.57617C0.056463 4.69832 0.0298435 4.82939 0.0298532 4.96178V8.9052L0.0622933 37.8916L0.0298532 38.0136C-0.0189881 38.2064 -0.00770971 38.3949 0.0622933 38.5558V38.5998H0.0825686C0.146663 38.7235 0.245501 38.8241 0.371183 38.8936C0.496865 38.9631 0.645907 38.9995 0.806397 39H42.5127C42.6482 39.0005 42.789 38.9753 42.927 38.926C43.0649 38.8766 43.1973 38.804 43.3166 38.7124C43.4358 38.6207 43.5396 38.5118 43.6219 38.3919C43.7042 38.272 43.7634 38.1434 43.7961 38.0136L49.97 13.7909C50.0363 13.53 49.9918 13.2796 49.8462 13.0947C49.7006 12.9098 49.4659 12.8055 49.1934 12.8046H43.6806V8.9052C43.6806 8.63988 43.5738 8.38544 43.3837 8.19783C43.1935 8.01023 42.9357 7.90484 42.6668 7.90484H39.5829V7.28061C39.6266 7.11264 39.6253 6.93635 39.579 6.76905C39.5328 6.60174 39.4434 6.44916 39.3194 6.32627L33.2043 0.292105C33.0378 0.125987 32.8176 0.0226426 32.5819 0H14.2388ZM15.2526 2.00072H31.4728V7.03452C31.4728 7.29984 31.5796 7.55428 31.7697 7.74188C31.9599 7.92949 32.2177 8.03488 32.4866 8.03488H37.5554V12.8046H15.2526V2.00072ZM33.5003 3.41523L36.1544 6.03416H33.5003V3.41523ZM17.2801 4.00144V6.00215H27.4177V4.00144H17.2801ZM2.05738 5.97414L7.17487 6.04217C7.17825 6.04219 7.18163 6.04219 7.18501 6.04217H13.225V12.8046H7.48711C7.3516 12.8041 7.21082 12.8293 7.07287 12.8786C6.93492 12.928 6.80251 13.0006 6.68326 13.0922C6.564 13.1839 6.46024 13.2928 6.37794 13.4127C6.29564 13.5326 6.23642 13.6611 6.20369 13.7909L2.08172 29.9708L2.05738 8.9052V5.97414ZM17.2801 8.00287V10.0036H29.4453V8.00287H17.2801ZM39.5829 9.90555H41.653V12.8066H39.5829V9.90555ZM8.01427 14.7753H47.6606L41.9876 37.0293H2.33718L8.01427 14.7753Z" fill="white"/>
</svg>
