<svg width="44" height="44" viewBox="0 0 44 44" fill="none" xmlns="http://www.w3.org/2000/svg">
<path d="M5 40V42C3.67392 42 2.40215 41.4732 1.46447 40.5355C0.526784 39.5979 0 38.3261 0 37V9C0 7.67392 0.526784 6.40215 1.46447 5.46447C2.40215 4.52678 3.67392 4 5 4H16V6H5C4.20435 6 3.44129 6.31607 2.87868 6.87868C2.31607 7.44129 2 8.20435 2 9V12H16V14H2V37C2 37.7957 2.31607 38.5587 2.87868 39.1213C3.44129 39.6839 4.20435 40 5 40ZM39 4V6C39.7957 6 40.5587 6.31607 41.1213 6.87868C41.6839 7.44129 42 8.20435 42 9V12H39V14H42V37C42 37.7957 41.6839 38.5587 41.1213 39.1213C40.5587 39.6839 39.7957 40 39 40H23V42H39C40.3261 42 41.5979 41.4732 42.5355 40.5355C43.4732 39.5979 44 38.3261 44 37V9C44 7.67392 43.4732 6.40215 42.5355 5.46447C41.5979 4.52678 40.3261 4 39 4ZM10 10V8H6V10H10ZM16 10V8H12V10H16ZM28 8C27.2679 7.99905 26.5446 8.15887 25.881 8.46818C25.2175 8.77748 24.63 9.22871 24.16 9.79L25.7 11.07C25.9816 10.7338 26.3334 10.4634 26.7308 10.2778C27.1282 10.0923 27.5614 9.99614 28 9.99614C28.4386 9.99614 28.8718 10.0923 29.2692 10.2778C29.6666 10.4634 30.0184 10.7338 30.3 11.07L31.84 9.79C31.37 9.22871 30.7825 8.77748 30.119 8.46818C29.4554 8.15887 28.7321 7.99905 28 8ZM28 6C28.9705 6.00002 29.9303 6.20183 30.8186 6.59261C31.7069 6.98339 32.5042 7.55461 33.16 8.27L34.64 6.93C33.7968 6.00841 32.7709 5.27244 31.6278 4.76893C30.4846 4.26542 29.2491 4.00539 28 4.00539C26.7509 4.00539 25.5154 4.26542 24.3722 4.76893C23.2291 5.27244 22.2032 6.00841 21.36 6.93L22.84 8.27C23.4958 7.55461 24.2931 6.98339 25.1814 6.59261C26.0697 6.20183 27.0295 6.00002 28 6ZM27 14H29V12H27V14ZM18 15V3C18 2.20435 18.3161 1.44129 18.8787 0.87868C19.4413 0.316071 20.2044 0 21 0H35C35.7957 0 36.5587 0.316071 37.1213 0.87868C37.6839 1.44129 38 2.20435 38 3V15C38 15.7956 37.6839 16.5587 37.1213 17.1213C36.5587 17.6839 35.7957 18 35 18H21C20.2044 18 19.4413 17.6839 18.8787 17.1213C18.3161 16.5587 18 15.7956 18 15ZM20 15C20 15.2652 20.1054 15.5196 20.2929 15.7071C20.4804 15.8946 20.7348 16 21 16H35C35.2652 16 35.5196 15.8946 35.7071 15.7071C35.8946 15.5196 36 15.2652 36 15V3C36 2.73478 35.8946 2.48043 35.7071 2.29289C35.5196 2.10536 35.2652 2 35 2H21C20.7348 2 20.4804 2.10536 20.2929 2.29289C20.1054 2.48043 20 2.73478 20 3V15ZM22 23V41C22 41.7957 21.6839 42.5587 21.1213 43.1213C20.5587 43.6839 19.7956 44 19 44H9C8.20435 44 7.44129 43.6839 6.87868 43.1213C6.31607 42.5587 6 41.7957 6 41V23C6 22.2044 6.31607 21.4413 6.87868 20.8787C7.44129 20.3161 8.20435 20 9 20H19C19.7956 20 20.5587 20.3161 21.1213 20.8787C21.6839 21.4413 22 22.2044 22 23ZM20 23C20 22.7348 19.8946 22.4804 19.7071 22.2929C19.5196 22.1054 19.2652 22 19 22H9C8.73478 22 8.48043 22.1054 8.29289 22.2929C8.10536 22.4804 8 22.7348 8 23V41C8 41.2652 8.10536 41.5196 8.29289 41.7071C8.48043 41.8946 8.73478 42 9 42H19C19.2652 42 19.5196 41.8946 19.7071 41.7071C19.8946 41.5196 20 41.2652 20 41V23ZM12 40H16V38H12V40ZM38 20H24V22H38V20ZM38 24H24V26H38V24ZM24 38H38V36H24V38ZM38 33C38 33.2652 37.8946 33.5196 37.7071 33.7071C37.5196 33.8946 37.2652 34 37 34H25C24.7348 34 24.4804 33.8946 24.2929 33.7071C24.1054 33.5196 24 33.2652 24 33V29C24 28.7348 24.1054 28.4804 24.2929 28.2929C24.4804 28.1054 24.7348 28 25 28H37C37.2652 28 37.5196 28.1054 37.7071 28.2929C37.8946 28.4804 38 28.7348 38 29V33ZM36 30H26V32H36V30Z" fill="white"/>
</svg>
