<svg width="34" height="47" viewBox="0 0 34 47" fill="none" xmlns="http://www.w3.org/2000/svg">
<path d="M32.5347 8.48843L26.4015 1.63418C26.2223 1.43383 26.0027 1.27372 25.7571 1.16441C25.5116 1.0551 25.2456 0.999072 24.9768 1.00001H4.21428C3.3618 1.00001 2.54424 1.33866 1.94144 1.94145C1.33865 2.54425 1 3.36182 1 4.2143V42.7857C1 43.6382 1.33865 44.4558 1.94144 45.0586C2.54424 45.6614 3.3618 46 4.21428 46H29.7548C30.6073 46 31.4249 45.6614 32.0277 45.0586C32.6305 44.4558 32.9691 43.6382 32.9691 42.7857V9.6004C32.9602 9.19007 32.8063 8.79615 32.5347 8.48843V8.48843ZM26.0714 4.84847L30.1457 9.40059C30.21 9.47391 30.2681 9.55236 30.3195 9.63515H26.3842C26.3035 9.63515 26.2262 9.60311 26.1692 9.54609C26.1121 9.48907 26.0801 9.41173 26.0801 9.33109L26.0714 4.84847ZM30.5888 42.7857C30.5888 43.0161 30.4973 43.2371 30.3343 43.4C30.1714 43.5629 29.9505 43.6544 29.7201 43.6544H4.21428C3.98388 43.6544 3.76292 43.5629 3.6 43.4C3.43709 43.2371 3.34556 43.0161 3.34556 42.7857V4.2143C3.34556 3.9839 3.43709 3.76293 3.6 3.60001C3.76292 3.4371 3.98388 3.34557 4.21428 3.34557H24.056V9.27897C24.056 9.89644 24.3013 10.4886 24.7379 10.9252C25.1745 11.3619 25.7667 11.6072 26.3842 11.6072H30.5888V42.7857Z" fill="white" stroke="white" stroke-width="0.1"/>
<path d="M27.9093 26.0952V27.1203C27.9093 27.4417 27.753 27.711 27.5619 27.711H6.3997C6.20858 27.711 6.05221 27.4504 6.05221 27.1203V26.0952C6.05221 25.7737 6.20858 25.5044 6.3997 25.5044H27.5619C27.753 25.5131 27.9093 25.7737 27.9093 26.0952ZM27.9093 32.7062V33.7313C27.9093 34.0527 27.753 34.322 27.5619 34.322H6.3997C6.20858 34.322 6.05221 34.0614 6.05221 33.7313V32.7062C6.05221 32.3847 6.20858 32.1154 6.3997 32.1154H27.5619C27.753 32.1241 27.9093 32.3847 27.9093 32.7062ZM27.9093 39.3172V40.377C27.9093 40.6984 27.753 40.9677 27.5619 40.9677H6.3997C6.20858 40.9677 6.05221 40.7071 6.05221 40.377V39.3172C6.05221 38.9957 6.20858 38.7264 6.3997 38.7264H27.5619C27.753 38.7351 27.9093 38.9957 27.9093 39.3172ZM21.4113 15.6878C21.4106 17.6391 20.6664 19.5168 19.3301 20.9387C17.9937 22.3606 16.1657 23.2198 14.2182 23.3413H13.7491C12.5013 23.354 11.2692 23.0621 10.1597 22.491C9.05024 21.9198 8.09685 21.0865 7.38226 20.0635C6.66766 19.0405 6.21344 17.8586 6.05899 16.6203C5.90453 15.382 6.05451 14.1247 6.49591 12.9575C6.93731 11.7903 7.65681 10.7484 8.592 9.92218C9.52718 9.09596 10.6498 8.51037 11.8625 8.21619C13.0752 7.92202 14.3414 7.92814 15.5512 8.23404C16.761 8.53994 17.878 9.13637 18.8051 9.97161C18.8388 10.0025 18.8657 10.0401 18.8841 10.082C18.9025 10.1239 18.912 10.1691 18.912 10.2149C18.912 10.2606 18.9025 10.3058 18.8841 10.3477C18.8657 10.3896 18.8388 10.4272 18.8051 10.4581L18.336 10.9272C18.2657 10.9907 18.1744 11.0258 18.0797 11.0258C17.985 11.0258 17.8937 10.9907 17.8234 10.9272C17.6406 10.7691 17.4492 10.6212 17.2501 10.4842C16.3807 9.89797 15.379 9.53777 14.3354 9.43614C13.2918 9.33451 12.2394 9.49467 11.2733 9.90211C10.8991 10.0611 10.5412 10.256 10.2047 10.4842C9.47361 10.9776 8.85448 11.6194 8.38753 12.3677C7.92057 13.116 7.61624 13.9542 7.4943 14.8278C7.4943 15.0102 7.45086 15.2013 7.43348 15.3838C7.41611 15.5662 7.43348 15.627 7.43348 15.7486C7.43229 16.5902 7.6007 17.4234 7.92866 18.1984C8.40685 19.3233 9.20035 20.2858 10.2134 20.9697C11.0828 21.5559 12.0845 21.9161 13.1281 22.0177C14.1717 22.1193 15.2241 21.9592 16.1902 21.5517C16.5646 21.3931 16.9225 21.1982 17.2588 20.9697C17.5925 20.7421 17.9038 20.4832 18.1883 20.1965C18.4749 19.9088 18.7338 19.5946 18.9615 19.2583C19.4418 18.5398 19.7698 17.7305 19.9252 16.8803C20.0806 16.0302 20.0601 15.1572 19.8649 14.3152C19.8514 14.2532 19.8538 14.1888 19.8721 14.128C19.8903 14.0672 19.9237 14.012 19.9692 13.9677L20.4731 13.4639C20.5204 13.4178 20.5789 13.3847 20.6429 13.368C20.7068 13.3512 20.774 13.3513 20.8379 13.3683C20.9018 13.3842 20.9603 13.4167 21.0076 13.4624C21.0549 13.5082 21.0893 13.5656 21.1072 13.6289C21.3021 14.2981 21.4044 14.9909 21.4113 15.6878V15.6878Z" fill="white"/>
<path d="M21.838 11.3555L14.9971 17.8717C14.9101 17.9539 14.7924 18 14.6698 18C14.5472 18 14.4295 17.9539 14.3425 17.8717L11.1348 14.8192C11.0485 14.7364 11 14.6244 11 14.5077C11 14.391 11.0485 14.2791 11.1348 14.1962L11.7502 13.6106C11.8372 13.5285 11.9549 13.4824 12.0775 13.4824C12.2001 13.4824 12.3177 13.5285 12.4048 13.6106L14.6371 15.735C14.6414 15.7401 14.6468 15.7443 14.6531 15.7472C14.6593 15.7501 14.6661 15.7516 14.6731 15.7516C14.68 15.7516 14.6869 15.7501 14.6931 15.7472C14.6993 15.7443 14.7048 15.7401 14.7091 15.735L20.6007 10.1283C20.6878 10.0461 20.8055 10 20.9281 10C21.0507 10 21.1683 10.0461 21.2554 10.1283L21.8707 10.7139C21.9145 10.7573 21.9484 10.8087 21.9705 10.865C21.9927 10.9213 22.0025 10.9813 21.9995 11.0414C21.9964 11.1014 21.9805 11.1603 21.9527 11.2143C21.925 11.2683 21.8859 11.3163 21.838 11.3555Z" fill="white"/>
</svg>
