<svg width="281" height="86" viewBox="0 0 281 86" fill="none" xmlns="http://www.w3.org/2000/svg">
<path d="M117.138 38.8182H118.068V45.5597C118.068 46.2524 117.906 46.8722 117.581 47.419C117.256 47.9626 116.804 48.3918 116.224 48.7067C115.647 49.0182 114.976 49.174 114.21 49.174C113.448 49.174 112.777 49.0166 112.197 48.7017C111.617 48.3868 111.164 47.9576 110.839 47.4141C110.515 46.8705 110.352 46.2524 110.352 45.5597V38.8182H111.282V45.495C111.282 46.0353 111.403 46.5175 111.645 46.9418C111.887 47.3627 112.227 47.6941 112.664 47.9361C113.105 48.178 113.62 48.299 114.21 48.299C114.8 48.299 115.316 48.178 115.756 47.9361C116.197 47.6941 116.537 47.3627 116.776 46.9418C117.018 46.5175 117.138 46.0353 117.138 45.495V38.8182ZM120.586 51.8636V41.3636H121.446V42.8203H121.551C121.657 42.5916 121.803 42.358 121.988 42.1193C122.174 41.8774 122.419 41.6735 122.724 41.5078C123.032 41.3421 123.42 41.2592 123.887 41.2592C124.517 41.2592 125.067 41.425 125.538 41.7564C126.012 42.0845 126.38 42.5452 126.642 43.1385C126.907 43.7285 127.039 44.4162 127.039 45.2017C127.039 45.9905 126.907 46.6816 126.642 47.2749C126.38 47.8681 126.012 48.3305 125.538 48.6619C125.067 48.9934 124.52 49.1591 123.897 49.1591C123.437 49.1591 123.051 49.0762 122.739 48.9105C122.431 48.7448 122.181 48.541 121.988 48.299C121.799 48.0537 121.654 47.8151 121.551 47.5831H121.471V51.8636H120.586ZM121.461 45.1868C121.461 45.8033 121.552 46.3501 121.735 46.8274C121.92 47.3014 122.185 47.6742 122.53 47.946C122.878 48.2145 123.299 48.3487 123.793 48.3487C124.3 48.3487 124.728 48.2095 125.076 47.9311C125.427 47.6494 125.694 47.2699 125.876 46.7926C126.062 46.3153 126.154 45.7801 126.154 45.1868C126.154 44.6001 126.063 44.0715 125.881 43.6009C125.702 43.1302 125.437 42.7573 125.086 42.4822C124.734 42.2038 124.303 42.0646 123.793 42.0646C123.296 42.0646 122.873 42.1989 122.525 42.4673C122.177 42.7325 121.912 43.1004 121.73 43.571C121.551 44.0384 121.461 44.5769 121.461 45.1868ZM129.866 38.8182V49H128.981V38.8182H129.866ZM135.175 49.1591C134.516 49.1591 133.933 48.9917 133.425 48.657C132.922 48.3222 132.527 47.8598 132.242 47.2699C131.957 46.6766 131.815 45.9922 131.815 45.2166C131.815 44.4344 131.957 43.7467 132.242 43.1534C132.527 42.5568 132.922 42.0928 133.425 41.7614C133.933 41.4266 134.516 41.2592 135.175 41.2592C135.835 41.2592 136.417 41.4266 136.92 41.7614C137.424 42.0961 137.819 42.5601 138.104 43.1534C138.392 43.7467 138.536 44.4344 138.536 45.2166C138.536 45.9922 138.394 46.6766 138.109 47.2699C137.824 47.8598 137.428 48.3222 136.92 48.657C136.417 48.9917 135.835 49.1591 135.175 49.1591ZM135.175 48.3487C135.706 48.3487 136.155 48.2062 136.523 47.9212C136.891 47.6361 137.169 47.2566 137.358 46.7827C137.55 46.3087 137.646 45.7867 137.646 45.2166C137.646 44.6465 137.55 44.1229 137.358 43.6456C137.169 43.1683 136.891 42.7855 136.523 42.4972C136.155 42.2088 135.706 42.0646 135.175 42.0646C134.648 42.0646 134.199 42.2088 133.828 42.4972C133.46 42.7855 133.18 43.1683 132.988 43.6456C132.799 44.1229 132.705 44.6465 132.705 45.2166C132.705 45.7867 132.799 46.3087 132.988 46.7827C133.18 47.2566 133.46 47.6361 133.828 47.9212C134.196 48.2062 134.645 48.3487 135.175 48.3487ZM142.612 49.174C142.151 49.174 141.73 49.0845 141.349 48.9055C140.968 48.7232 140.664 48.4614 140.439 48.12C140.214 47.7753 140.101 47.3577 140.101 46.8672C140.101 46.4893 140.172 46.1712 140.315 45.9126C140.457 45.6541 140.66 45.442 140.921 45.2763C141.183 45.1106 141.493 44.9796 141.851 44.8835C142.209 44.7874 142.603 44.7128 143.034 44.6598C143.462 44.6068 143.823 44.5604 144.118 44.5206C144.416 44.4808 144.643 44.4179 144.799 44.3317C144.955 44.2455 145.033 44.1063 145.033 43.9141V43.7351C145.033 43.2147 144.877 42.8054 144.566 42.5071C144.257 42.2055 143.813 42.0547 143.233 42.0547C142.683 42.0547 142.234 42.1757 141.886 42.4176C141.541 42.6596 141.299 42.9446 141.16 43.2727L140.32 42.9695C140.492 42.5518 140.731 42.2187 141.036 41.9702C141.341 41.7183 141.682 41.5376 142.06 41.4283C142.438 41.3156 142.82 41.2592 143.208 41.2592C143.5 41.2592 143.803 41.2973 144.118 41.3736C144.436 41.4498 144.731 41.5824 145.003 41.7713C145.275 41.9569 145.495 42.2171 145.664 42.5518C145.833 42.8833 145.918 43.3042 145.918 43.8146V49H145.033V47.7919H144.978C144.872 48.0173 144.715 48.236 144.506 48.4482C144.297 48.6603 144.035 48.8343 143.72 48.9702C143.405 49.1061 143.036 49.174 142.612 49.174ZM142.731 48.3636C143.202 48.3636 143.609 48.2592 143.954 48.0504C144.299 47.8416 144.564 47.5649 144.749 47.2202C144.938 46.8722 145.033 46.4893 145.033 46.0717V44.968C144.967 45.031 144.856 45.0874 144.7 45.1371C144.547 45.1868 144.37 45.2315 144.168 45.2713C143.969 45.3078 143.77 45.3393 143.571 45.3658C143.372 45.3923 143.193 45.4155 143.034 45.4354C142.603 45.4884 142.235 45.5713 141.931 45.6839C141.626 45.7966 141.392 45.9524 141.23 46.1513C141.067 46.3468 140.986 46.5987 140.986 46.907C140.986 47.371 141.152 47.7306 141.483 47.9858C141.815 48.2377 142.231 48.3636 142.731 48.3636ZM151.021 49.1591C150.395 49.1591 149.846 48.9934 149.376 48.6619C148.905 48.3305 148.537 47.8681 148.272 47.2749C148.01 46.6816 147.879 45.9905 147.879 45.2017C147.879 44.4162 148.01 43.7285 148.272 43.1385C148.537 42.5452 148.907 42.0845 149.381 41.7564C149.854 41.425 150.406 41.2592 151.036 41.2592C151.5 41.2592 151.886 41.3421 152.194 41.5078C152.503 41.6702 152.75 41.8724 152.935 42.1143C153.121 42.3563 153.265 42.5916 153.368 42.8203H153.447V38.8182H154.337V49H153.472V47.5831H153.368C153.265 47.8151 153.119 48.0537 152.93 48.299C152.741 48.541 152.491 48.7448 152.18 48.9105C151.871 49.0762 151.485 49.1591 151.021 49.1591ZM151.126 48.3487C151.619 48.3487 152.04 48.2145 152.388 47.946C152.736 47.6742 153.001 47.3014 153.184 46.8274C153.369 46.3501 153.462 45.8033 153.462 45.1868C153.462 44.5769 153.371 44.0384 153.189 43.571C153.006 43.1004 152.741 42.7325 152.393 42.4673C152.045 42.1989 151.623 42.0646 151.126 42.0646C150.615 42.0646 150.184 42.2038 149.833 42.4822C149.485 42.7573 149.22 43.1302 149.037 43.6009C148.858 44.0715 148.769 44.6001 148.769 45.1868C148.769 45.7801 148.86 46.3153 149.042 46.7926C149.225 47.2699 149.49 47.6494 149.838 47.9311C150.189 48.2095 150.618 48.3487 151.126 48.3487ZM165.926 43.0391L165.116 43.2678C165.036 43.0391 164.923 42.8319 164.778 42.6463C164.632 42.4607 164.441 42.3132 164.206 42.2038C163.974 42.0945 163.685 42.0398 163.341 42.0398C162.824 42.0398 162.399 42.1624 162.068 42.4077C161.737 42.6529 161.571 42.9695 161.571 43.3572C161.571 43.6854 161.684 43.9522 161.909 44.1577C162.138 44.3598 162.489 44.5206 162.963 44.6399L164.116 44.9233C164.756 45.0791 165.235 45.326 165.553 45.6641C165.875 46.0021 166.035 46.4264 166.035 46.9368C166.035 47.3677 165.916 47.7505 165.677 48.0852C165.439 48.42 165.106 48.6835 164.678 48.8757C164.254 49.0646 163.762 49.1591 163.202 49.1591C162.456 49.1591 161.841 48.9917 161.357 48.657C160.873 48.3189 160.563 47.8317 160.427 47.1953L161.278 46.9865C161.387 47.4406 161.601 47.7836 161.919 48.0156C162.24 48.2476 162.663 48.3636 163.187 48.3636C163.773 48.3636 164.242 48.2327 164.594 47.9709C164.945 47.7057 165.121 47.3743 165.121 46.9766C165.121 46.6683 165.018 46.4098 164.812 46.201C164.607 45.9889 164.295 45.8331 163.878 45.7337L162.63 45.4354C161.967 45.2763 161.476 45.0244 161.158 44.6797C160.84 44.335 160.681 43.9074 160.681 43.397C160.681 42.9761 160.795 42.6065 161.024 42.2884C161.253 41.9669 161.568 41.715 161.969 41.5327C162.37 41.3504 162.827 41.2592 163.341 41.2592C164.04 41.2592 164.599 41.4183 165.016 41.7365C165.437 42.0514 165.74 42.4856 165.926 43.0391ZM170.956 49.1591C170.273 49.1591 169.678 48.9884 169.171 48.647C168.667 48.3056 168.276 47.8383 167.998 47.245C167.719 46.6518 167.58 45.9756 167.58 45.2166C167.58 44.451 167.721 43.7699 168.003 43.1733C168.288 42.5767 168.682 42.1094 169.186 41.7713C169.69 41.4299 170.275 41.2592 170.941 41.2592C171.451 41.2592 171.914 41.3587 172.328 41.5575C172.742 41.7531 173.084 42.0298 173.352 42.3878C173.624 42.7424 173.795 43.1567 173.864 43.6307H172.969C172.877 43.1998 172.653 42.8319 172.298 42.527C171.947 42.2187 171.5 42.0646 170.956 42.0646C170.469 42.0646 170.038 42.1972 169.663 42.4624C169.289 42.7242 168.996 43.0904 168.783 43.5611C168.575 44.0284 168.47 44.5703 168.47 45.1868C168.47 45.8066 168.573 46.3551 168.778 46.8324C168.984 47.3063 169.272 47.6776 169.643 47.946C170.018 48.2145 170.455 48.3487 170.956 48.3487C171.294 48.3487 171.602 48.2857 171.881 48.1598C172.162 48.0305 172.398 47.8482 172.587 47.6129C172.779 47.3776 172.908 47.0975 172.974 46.7727H173.869C173.803 47.2334 173.639 47.6444 173.377 48.0057C173.119 48.3636 172.782 48.6454 172.368 48.8509C171.957 49.0563 171.486 49.1591 170.956 49.1591ZM178.734 49.1591C178.074 49.1591 177.491 48.9917 176.984 48.657C176.48 48.3222 176.086 47.8598 175.801 47.2699C175.516 46.6766 175.373 45.9922 175.373 45.2166C175.373 44.4344 175.516 43.7467 175.801 43.1534C176.086 42.5568 176.48 42.0928 176.984 41.7614C177.491 41.4266 178.074 41.2592 178.734 41.2592C179.394 41.2592 179.975 41.4266 180.479 41.7614C180.983 42.0961 181.377 42.5601 181.662 43.1534C181.951 43.7467 182.095 44.4344 182.095 45.2166C182.095 45.9922 181.952 46.6766 181.667 47.2699C181.382 47.8598 180.986 48.3222 180.479 48.657C179.975 48.9917 179.394 49.1591 178.734 49.1591ZM178.734 48.3487C179.264 48.3487 179.713 48.2062 180.081 47.9212C180.449 47.6361 180.728 47.2566 180.917 46.7827C181.109 46.3087 181.205 45.7867 181.205 45.2166C181.205 44.6465 181.109 44.1229 180.917 43.6456C180.728 43.1683 180.449 42.7855 180.081 42.4972C179.713 42.2088 179.264 42.0646 178.734 42.0646C178.207 42.0646 177.758 42.2088 177.387 42.4972C177.019 42.7855 176.739 43.1683 176.547 43.6456C176.358 44.1229 176.263 44.6465 176.263 45.2166C176.263 45.7867 176.358 46.3087 176.547 46.7827C176.739 47.2566 177.019 47.6361 177.387 47.9212C177.755 48.2062 178.204 48.3487 178.734 48.3487ZM184.037 51.8636V41.3636H184.898V42.8203H185.002C185.108 42.5916 185.254 42.358 185.439 42.1193C185.625 41.8774 185.87 41.6735 186.175 41.5078C186.483 41.3421 186.871 41.2592 187.339 41.2592C187.968 41.2592 188.519 41.425 188.989 41.7564C189.463 42.0845 189.831 42.5452 190.093 43.1385C190.358 43.7285 190.491 44.4162 190.491 45.2017C190.491 45.9905 190.358 46.6816 190.093 47.2749C189.831 47.8681 189.463 48.3305 188.989 48.6619C188.519 48.9934 187.972 49.1591 187.349 49.1591C186.888 49.1591 186.502 49.0762 186.19 48.9105C185.882 48.7448 185.632 48.541 185.439 48.299C185.251 48.0537 185.105 47.8151 185.002 47.5831H184.922V51.8636H184.037ZM184.912 45.1868C184.912 45.8033 185.004 46.3501 185.186 46.8274C185.372 47.3014 185.637 47.6742 185.981 47.946C186.329 48.2145 186.75 48.3487 187.244 48.3487C187.751 48.3487 188.179 48.2095 188.527 47.9311C188.878 47.6494 189.145 47.2699 189.327 46.7926C189.513 46.3153 189.606 45.7801 189.606 45.1868C189.606 44.6001 189.515 44.0715 189.332 43.6009C189.153 43.1302 188.888 42.7573 188.537 42.4822C188.185 42.2038 187.755 42.0646 187.244 42.0646C186.747 42.0646 186.324 42.1989 185.976 42.4673C185.628 42.7325 185.363 43.1004 185.181 43.571C185.002 44.0384 184.912 44.5769 184.912 45.1868ZM195.519 49.1591C194.807 49.1591 194.19 48.9934 193.67 48.6619C193.15 48.3272 192.747 47.8648 192.462 47.2749C192.18 46.6816 192.039 45.9988 192.039 45.2266C192.039 44.4576 192.18 43.7749 192.462 43.1783C192.747 42.5784 193.14 42.1094 193.64 41.7713C194.144 41.4299 194.726 41.2592 195.385 41.2592C195.799 41.2592 196.199 41.3355 196.583 41.4879C196.968 41.6371 197.312 41.8674 197.617 42.179C197.926 42.4872 198.169 42.8767 198.348 43.3473C198.527 43.8146 198.617 44.3681 198.617 45.0078V45.4453H192.651V44.6648H197.712C197.712 44.1742 197.612 43.7334 197.414 43.3423C197.218 42.9479 196.945 42.6364 196.593 42.4077C196.245 42.179 195.843 42.0646 195.385 42.0646C194.901 42.0646 194.475 42.1939 194.107 42.4524C193.74 42.7109 193.451 43.0523 193.242 43.4766C193.037 43.9008 192.932 44.3648 192.929 44.8686V45.3359C192.929 45.9425 193.034 46.4728 193.242 46.9268C193.454 47.3776 193.754 47.7273 194.142 47.9759C194.53 48.2244 194.989 48.3487 195.519 48.3487C195.881 48.3487 196.197 48.2924 196.469 48.1797C196.744 48.067 196.974 47.9162 197.16 47.7273C197.349 47.535 197.491 47.3246 197.588 47.0959L198.428 47.3693C198.312 47.6908 198.121 47.9875 197.856 48.2592C197.594 48.531 197.266 48.7498 196.872 48.9155C196.481 49.0779 196.03 49.1591 195.519 49.1591ZM207.472 49.1591C206.813 49.1591 206.229 48.9917 205.722 48.657C205.219 48.3222 204.824 47.8598 204.539 47.2699C204.254 46.6766 204.112 45.9922 204.112 45.2166C204.112 44.4344 204.254 43.7467 204.539 43.1534C204.824 42.5568 205.219 42.0928 205.722 41.7614C206.229 41.4266 206.813 41.2592 207.472 41.2592C208.132 41.2592 208.714 41.4266 209.217 41.7614C209.721 42.0961 210.116 42.5601 210.401 43.1534C210.689 43.7467 210.833 44.4344 210.833 45.2166C210.833 45.9922 210.691 46.6766 210.406 47.2699C210.121 47.8598 209.724 48.3222 209.217 48.657C208.714 48.9917 208.132 49.1591 207.472 49.1591ZM207.472 48.3487C208.003 48.3487 208.452 48.2062 208.82 47.9212C209.188 47.6361 209.466 47.2566 209.655 46.7827C209.847 46.3087 209.943 45.7867 209.943 45.2166C209.943 44.6465 209.847 44.1229 209.655 43.6456C209.466 43.1683 209.188 42.7855 208.82 42.4972C208.452 42.2088 208.003 42.0646 207.472 42.0646C206.945 42.0646 206.496 42.2088 206.125 42.4972C205.757 42.7855 205.477 43.1683 205.285 43.6456C205.096 44.1229 205.001 44.6465 205.001 45.2166C205.001 45.7867 205.096 46.3087 205.285 46.7827C205.477 47.2566 205.757 47.6361 206.125 47.9212C206.493 48.2062 206.942 48.3487 207.472 48.3487ZM215.918 41.3636V42.1342H212.164V41.3636H215.918ZM213.338 49V40.245C213.338 39.834 213.432 39.4877 213.621 39.206C213.813 38.9242 214.063 38.7105 214.372 38.5646C214.68 38.4188 215.006 38.3459 215.351 38.3459C215.583 38.3459 215.775 38.3658 215.928 38.4055C216.084 38.442 216.206 38.4785 216.296 38.5149L216.037 39.2905C215.971 39.2706 215.89 39.2474 215.794 39.2209C215.697 39.1944 215.576 39.1811 215.431 39.1811C215.046 39.1811 214.749 39.2888 214.541 39.5043C214.332 39.7197 214.227 40.0279 214.227 40.429L214.222 49H213.338ZM223.317 49L221.01 41.3636H221.945L223.754 47.6626H223.819L225.624 41.3636H226.563L228.353 47.6477H228.423L230.232 41.3636H231.167L228.86 49H227.945L226.136 42.7408H226.041L224.232 49H223.317ZM235.595 49.1591C234.936 49.1591 234.352 48.9917 233.845 48.657C233.342 48.3222 232.947 47.8598 232.662 47.2699C232.377 46.6766 232.235 45.9922 232.235 45.2166C232.235 44.4344 232.377 43.7467 232.662 43.1534C232.947 42.5568 233.342 42.0928 233.845 41.7614C234.352 41.4266 234.936 41.2592 235.595 41.2592C236.255 41.2592 236.837 41.4266 237.34 41.7614C237.844 42.0961 238.239 42.5601 238.524 43.1534C238.812 43.7467 238.956 44.4344 238.956 45.2166C238.956 45.9922 238.814 46.6766 238.529 47.2699C238.244 47.8598 237.847 48.3222 237.34 48.657C236.837 48.9917 236.255 49.1591 235.595 49.1591ZM235.595 48.3487C236.126 48.3487 236.575 48.2062 236.943 47.9212C237.311 47.6361 237.589 47.2566 237.778 46.7827C237.97 46.3087 238.066 45.7867 238.066 45.2166C238.066 44.6465 237.97 44.1229 237.778 43.6456C237.589 43.1683 237.311 42.7855 236.943 42.4972C236.575 42.2088 236.126 42.0646 235.595 42.0646C235.068 42.0646 234.619 42.2088 234.248 42.4972C233.88 42.7855 233.6 43.1683 233.408 43.6456C233.219 44.1229 233.124 44.6465 233.124 45.2166C233.124 45.7867 233.219 46.3087 233.408 46.7827C233.6 47.2566 233.88 47.6361 234.248 47.9212C234.616 48.2062 235.065 48.3487 235.595 48.3487ZM240.899 49V41.3636H241.759V42.5369H241.824C241.976 42.1525 242.241 41.8426 242.619 41.6072C243 41.3686 243.431 41.2493 243.912 41.2493C243.984 41.2493 244.066 41.2509 244.155 41.2543C244.245 41.2576 244.319 41.2609 244.379 41.2642V42.1641C244.339 42.1574 244.27 42.1475 244.17 42.1342C244.071 42.121 243.963 42.1143 243.847 42.1143C243.449 42.1143 243.095 42.1989 242.783 42.3679C242.475 42.5336 242.231 42.764 242.052 43.0589C241.873 43.3539 241.784 43.6903 241.784 44.0682V49H240.899ZM246.694 46.1165L246.684 44.9581H246.883L250.463 41.3636H251.581L248.047 44.9034L247.967 44.9183L246.694 46.1165ZM245.889 49V38.8182H246.774V49H245.889ZM250.647 49L247.545 45.0774L248.181 44.4659L251.78 49H250.647Z" fill="#817D7D"/>
<g filter="url(#filter0_d_51_53)">
<circle cx="47.265" cy="43.265" r="27.265" fill="white"/>
</g>
<path d="M54.6667 38.7778H53C52.6932 38.7778 52.4444 39.0265 52.4444 39.3333C52.4444 39.6401 52.6932 39.8889 53 39.8889H54.6667C55.8933 39.8904 56.8873 40.8844 56.8889 42.1111V49.8889C56.8873 51.1156 55.8933 52.1096 54.6667 52.1111H41.3333C40.1067 52.1096 39.1127 51.1156 39.1111 49.8889V42.1111C39.1127 40.8844 40.1067 39.8904 41.3333 39.8889H44.1111C44.4179 39.8889 44.6667 39.6401 44.6667 39.3333C44.6667 39.0265 44.4179 38.7778 44.1111 38.7778H41.3333C39.4932 38.7798 38.002 40.271 38 42.1111V49.8889C38.002 51.729 39.4932 53.2202 41.3333 53.2222H54.6667C56.5068 53.2202 57.998 51.729 58 49.8889V42.1111C57.998 40.271 56.5068 38.7798 54.6667 38.7778ZM44.5137 35.8275L47.4444 32.8966V48.2228C47.4446 48.5295 47.6933 48.778 48 48.7778H48.0007C48.3073 48.7776 48.5558 48.5289 48.5556 48.2222V32.8966L51.4863 35.8275C51.5904 35.9318 51.7318 35.9904 51.8791 35.9902C52.0264 35.9902 52.1677 35.9317 52.2719 35.8275C52.4888 35.6107 52.4889 35.2589 52.2719 35.0419L48.3931 31.1631C48.3418 31.1117 48.2803 31.0711 48.2121 31.0429C48.1476 31.0163 48.0794 31.0035 48.0108 31.0022C48.007 31.0021 48.0038 31 48 31C47.9974 31 47.9951 31.0014 47.9925 31.0015C47.9228 31.0024 47.8532 31.0157 47.7877 31.0429C47.7196 31.071 47.6583 31.1116 47.6071 31.1629L43.7281 35.042C43.7254 35.0445 43.7228 35.0472 43.7201 35.0499C43.5054 35.269 43.509 35.6207 43.7281 35.8354C43.9472 36.0501 44.299 36.0466 44.5137 35.8275Z" fill="#13D1D4"/>
<rect x="0.5" y="0.5" width="94" height="85" rx="11.5" stroke="black" stroke-opacity="0.31" stroke-dasharray="5 5"/>
<defs>
<filter id="filter0_d_51_53" x="16" y="12" width="62.53" height="62.53" filterUnits="userSpaceOnUse" color-interpolation-filters="sRGB">
<feFlood flood-opacity="0" result="BackgroundImageFix"/>
<feColorMatrix in="SourceAlpha" type="matrix" values="0 0 0 0 0 0 0 0 0 0 0 0 0 0 0 0 0 0 127 0" result="hardAlpha"/>
<feOffset/>
<feGaussianBlur stdDeviation="2"/>
<feComposite in2="hardAlpha" operator="out"/>
<feColorMatrix type="matrix" values="0 0 0 0 0 0 0 0 0 0 0 0 0 0 0 0 0 0 0.25 0"/>
<feBlend mode="normal" in2="BackgroundImageFix" result="effect1_dropShadow_51_53"/>
<feBlend mode="normal" in="SourceGraphic" in2="effect1_dropShadow_51_53" result="shape"/>
</filter>
</defs>
</svg>
